<?xml version="1.0" encoding="iso-8859-1"?>
<!-- Uploaded to: SVG Repo, www.svgrepo.com, Generator: SVG Repo Mixer Tools -->
<svg fill="#000000" height="800px" width="800px" version="1.1" id="Capa_1" xmlns="http://www.w3.org/2000/svg" xmlns:xlink="http://www.w3.org/1999/xlink" 
	 viewBox="0 0 58 58" xml:space="preserve">
<g>
	<g>
		<path d="M53,42.5V26c0-10.201-8.302-18.5-18.506-18.5H23.506C13.302,7.5,5,15.799,5,26v16.5H0v2h6h1h3v2c0,2.206,1.797,4,4.006,4
			h4.988c2.209,0,4.006-1.794,4.006-4v-2h12v2c0,2.206,1.797,4,4.006,4h4.988c2.209,0,4.006-1.794,4.006-4v-2h3h1h6v-2H53z M21,46.5
			c0,1.103-0.899,2-2.006,2h-4.988c-1.106,0-2.006-0.897-2.006-2v-2h9V46.5z M46,46.5c0,1.103-0.899,2-2.006,2h-4.988
			c-1.106,0-2.006-0.897-2.006-2v-2h9V46.5z M47,42.5h-1h-9h-1H22h-1h-9h-1H7V26c0-9.098,7.404-16.5,16.506-16.5h10.988
			C43.596,9.5,51,16.902,51,26v16.5H47z"/>
		<path d="M21,22.5c-3.309,0-6,2.691-6,6s2.691,6,6,6s6-2.691,6-6S24.309,22.5,21,22.5z M24.944,29.05
			C24.739,28.164,23.947,27.5,23,27.5c-1.103,0-2,0.897-2,2s0.897,2,2,2c0.303,0,0.587-0.073,0.844-0.194
			C23.119,32.042,22.113,32.5,21,32.5c-2.206,0-4-1.794-4-4s1.794-4,4-4s4,1.794,4,4C25,28.688,24.97,28.868,24.944,29.05z"/>
		<path d="M37,22.5c-3.309,0-6,2.691-6,6s2.691,6,6,6s6-2.691,6-6S40.309,22.5,37,22.5z M37,32.5c-1.113,0-2.119-0.458-2.844-1.194
			C34.413,31.427,34.697,31.5,35,31.5c1.103,0,2-0.897,2-2s-0.897-2-2-2c-0.947,0-1.739,0.664-1.944,1.55
			C33.03,28.868,33,28.688,33,28.5c0-2.206,1.794-4,4-4s4,1.794,4,4S39.206,32.5,37,32.5z"/>
		<path d="M29,32.5c-1.654,0-3,1.346-3,3s1.346,3,3,3s3-1.346,3-3S30.654,32.5,29,32.5z M29,36.5c-0.552,0-1-0.449-1-1s0.448-1,1-1
			s1,0.449,1,1S29.552,36.5,29,36.5z"/>
	</g>
</g>
</svg>